<svg xmlns="http://www.w3.org/2000/svg" viewBox="0 0 43 5" shape-rendering="crispEdges"><g fill="#f1f6ff"><rect x="0" y="0" width=".86" height=".86"/><rect x="2" y="0" width=".86" height=".86"/><rect x="0" y="1" width=".86" height=".86"/><rect x="2" y="1" width=".86" height=".86"/><rect x="0" y="2" width=".86" height=".86"/><rect x="1" y="2" width=".86" height=".86"/><rect x="2" y="2" width=".86" height=".86"/><rect x="2" y="3" width=".86" height=".86"/><rect x="2" y="4" width=".86" height=".86"/><rect x="12" y="0" width=".86" height=".86"/><rect x="14" y="0" width=".86" height=".86"/><rect x="12" y="1" width=".86" height=".86"/><rect x="14" y="1" width=".86" height=".86"/><rect x="12" y="2" width=".86" height=".86"/><rect x="14" y="2" width=".86" height=".86"/><rect x="12" y="3" width=".86" height=".86"/><rect x="14" y="3" width=".86" height=".86"/><rect x="12" y="4" width=".86" height=".86"/><rect x="13" y="4" width=".86" height=".86"/><rect x="14" y="4" width=".86" height=".86"/><rect x="16" y="0" width=".86" height=".86"/><rect x="17" y="0" width=".86" height=".86"/><rect x="18" y="0" width=".86" height=".86"/><rect x="16" y="1" width=".86" height=".86"/><rect x="18" y="1" width=".86" height=".86"/><rect x="16" y="2" width=".86" height=".86"/><rect x="17" y="2" width=".86" height=".86"/><rect x="18" y="2" width=".86" height=".86"/><rect x="16" y="3" width=".86" height=".86"/><rect x="16" y="4" width=".86" height=".86"/><rect x="20" y="0" width=".86" height=".86"/><rect x="21" y="0" width=".86" height=".86"/><rect x="22" y="0" width=".86" height=".86"/><rect x="20" y="1" width=".86" height=".86"/><rect x="20" y="2" width=".86" height=".86"/><rect x="22" y="2" width=".86" height=".86"/><rect x="20" y="3" width=".86" height=".86"/><rect x="22" y="3" width=".86" height=".86"/><rect x="20" y="4" width=".86" height=".86"/><rect x="21" y="4" width=".86" height=".86"/><rect x="22" y="4" width=".86" height=".86"/><rect x="24" y="0" width=".86" height=".86"/><rect x="25" y="0" width=".86" height=".86"/><rect x="24" y="1" width=".86" height=".86"/><rect x="26" y="1" width=".86" height=".86"/><rect x="24" y="2" width=".86" height=".86"/><rect x="25" y="2" width=".86" height=".86"/><rect x="24" y="3" width=".86" height=".86"/><rect x="26" y="3" width=".86" height=".86"/><rect x="24" y="4" width=".86" height=".86"/><rect x="26" y="4" width=".86" height=".86"/><rect x="29" y="0" width=".86" height=".86"/><rect x="28" y="1" width=".86" height=".86"/><rect x="30" y="1" width=".86" height=".86"/><rect x="28" y="2" width=".86" height=".86"/><rect x="29" y="2" width=".86" height=".86"/><rect x="30" y="2" width=".86" height=".86"/><rect x="28" y="3" width=".86" height=".86"/><rect x="30" y="3" width=".86" height=".86"/><rect x="28" y="4" width=".86" height=".86"/><rect x="30" y="4" width=".86" height=".86"/><rect x="32" y="0" width=".86" height=".86"/><rect x="33" y="0" width=".86" height=".86"/><rect x="32" y="1" width=".86" height=".86"/><rect x="34" y="1" width=".86" height=".86"/><rect x="32" y="2" width=".86" height=".86"/><rect x="34" y="2" width=".86" height=".86"/><rect x="32" y="3" width=".86" height=".86"/><rect x="34" y="3" width=".86" height=".86"/><rect x="32" y="4" width=".86" height=".86"/><rect x="33" y="4" width=".86" height=".86"/><rect x="36" y="0" width=".86" height=".86"/><rect x="37" y="0" width=".86" height=".86"/><rect x="38" y="0" width=".86" height=".86"/><rect x="36" y="1" width=".86" height=".86"/><rect x="36" y="2" width=".86" height=".86"/><rect x="37" y="2" width=".86" height=".86"/><rect x="36" y="3" width=".86" height=".86"/><rect x="36" y="4" width=".86" height=".86"/><rect x="37" y="4" width=".86" height=".86"/><rect x="38" y="4" width=".86" height=".86"/><rect x="40" y="0" width=".86" height=".86"/><rect x="41" y="0" width=".86" height=".86"/><rect x="42" y="0" width=".86" height=".86"/><rect x="40" y="1" width=".86" height=".86"/><rect x="40" y="2" width=".86" height=".86"/><rect x="41" y="2" width=".86" height=".86"/><rect x="42" y="2" width=".86" height=".86"/><rect x="42" y="3" width=".86" height=".86"/><rect x="40" y="4" width=".86" height=".86"/><rect x="41" y="4" width=".86" height=".86"/><rect x="42" y="4" width=".86" height=".86"/></g></svg>
